<mxfile host="app.diagrams.net" modified="2022-12-13T22:06:19.002Z" agent="5.0 (Windows NT 10.0; Win64; x64) AppleWebKit/537.36 (KHTML, like Gecko) Chrome/108.0.0.0 Safari/537.36" etag="w4rSLez8HjsZo2gEO7h_" version="20.6.0" type="github">
  <diagram id="07fea595-8f29-1299-0266-81d95cde20df" name="Page-1">
    <mxGraphModel dx="1470" dy="-1750" grid="1" gridSize="10" guides="1" tooltips="1" connect="1" arrows="1" fold="1" page="1" pageScale="1" pageWidth="1169" pageHeight="827" background="none" math="0" shadow="0">
      <root>
        <mxCell id="0" />
        <mxCell id="1" parent="0" />
        <mxCell id="644" value="&lt;font color=&quot;#ffffff&quot;&gt;&lt;span style=&quot;font-size: 30px;&quot;&gt;&lt;b&gt;Cobra-Flow&lt;/b&gt;&lt;/span&gt;&lt;/font&gt;" style="shape=hexagon;perimeter=hexagonPerimeter2;whiteSpace=wrap;html=1;shadow=0;labelBackgroundColor=none;strokeColor=#23445D;fillColor=#23445D;gradientColor=none;fontFamily=Helvetica;fontSize=23;fontColor=#23445d;align=center;strokeWidth=3;" parent="1" vertex="1">
          <mxGeometry x="428.57894736842115" y="2764.7982456140344" width="311.84210526315786" height="259.86842105263156" as="geometry" />
        </mxCell>
        <mxCell id="645" value="" style="triangle;whiteSpace=wrap;html=1;shadow=0;labelBackgroundColor=none;strokeColor=none;fillColor=#FFFFFF;fontFamily=Helvetica;fontSize=17;fontColor=#23445d;align=center;rotation=90;gradientColor=none;flipV=1;flipH=1;opacity=20;" parent="1" vertex="1">
          <mxGeometry x="309.5" y="2782.6666666666665" width="72" height="152" as="geometry" />
        </mxCell>
        <mxCell id="646" value="Data Prep&lt;br&gt;&lt;font style=&quot;font-size: 14px;&quot;&gt;Data transformation of raw data.&amp;nbsp;&lt;br&gt;Parse date, &lt;br&gt;normalization, &lt;br&gt;handle missing etc.&lt;/font&gt;" style="shape=hexagon;perimeter=hexagonPerimeter2;whiteSpace=wrap;html=1;shadow=0;labelBackgroundColor=none;strokeColor=#23445D;fillColor=#ffffff;gradientColor=none;fontFamily=Helvetica;fontSize=23;fontColor=#23445D;align=center;strokeWidth=3;" parent="1" vertex="1">
          <mxGeometry x="428.57894736842115" y="2504.6666666666665" width="311.84210526315786" height="259.86842105263156" as="geometry" />
        </mxCell>
        <mxCell id="647" value="&lt;font style=&quot;&quot;&gt;Variable Select&amp;nbsp;&lt;br&gt;&lt;/font&gt;&lt;span style=&quot;font-size: 14px;&quot;&gt;&lt;i&gt;smart &lt;/i&gt;variable selection tailed &lt;br&gt;for treatment and outcome model.&lt;/span&gt;" style="shape=hexagon;perimeter=hexagonPerimeter2;whiteSpace=wrap;html=1;shadow=0;labelBackgroundColor=none;strokeColor=#23445D;fillColor=#FFFFFF;gradientColor=none;fontFamily=Helvetica;fontSize=23;fontColor=#23445d;align=center;strokeWidth=3;" parent="1" vertex="1">
          <mxGeometry x="662.6578947368422" y="2634.1995614035086" width="311.84210526315786" height="259.86842105263156" as="geometry" />
        </mxCell>
        <mxCell id="648" value="Model Check&lt;br&gt;&lt;span style=&quot;font-size: 14px;&quot;&gt;Treatment model diagnostic.&lt;br&gt;TableOne&lt;br&gt;Pre vs Post-Weighted Balance,&amp;nbsp;&lt;br&gt;Positivity Checks&lt;br&gt;&lt;/span&gt;" style="shape=hexagon;perimeter=hexagonPerimeter2;whiteSpace=wrap;html=1;shadow=0;labelBackgroundColor=none;strokeColor=#23445D;fillColor=#FFFFFF;gradientColor=none;fontFamily=Helvetica;fontSize=23;fontColor=#23445d;align=center;strokeWidth=3;" parent="1" vertex="1">
          <mxGeometry x="662.6578947368422" y="2894.2653508771928" width="311.84210526315786" height="259.86842105263156" as="geometry" />
        </mxCell>
        <mxCell id="650" value="&lt;font style=&quot;&quot;&gt;E2E&lt;br&gt;&lt;span style=&quot;font-size: 14px;&quot;&gt;End to End call to streamline &lt;br&gt;variable selection to model fitting for various outcome, sub-groups.&amp;nbsp;&lt;/span&gt;&lt;br&gt;&lt;/font&gt;" style="shape=hexagon;perimeter=hexagonPerimeter2;whiteSpace=wrap;html=1;shadow=0;labelBackgroundColor=none;strokeColor=#23445D;fillColor=#FFFFFF;gradientColor=none;fontFamily=Helvetica;fontSize=23;fontColor=#23445d;align=center;strokeWidth=3;" parent="1" vertex="1">
          <mxGeometry x="194.5" y="2894.2653508771928" width="311.84210526315786" height="259.86842105263156" as="geometry" />
        </mxCell>
        <mxCell id="651" value="&lt;font style=&quot;&quot;&gt;&lt;font color=&quot;#23445d&quot;&gt;Data Plot&amp;nbsp;&lt;br&gt;&lt;font style=&quot;font-size: 14px;&quot;&gt;Visual exploration of raw data. &lt;br&gt;Look for pattern, abnormality.&amp;nbsp;&amp;nbsp;&lt;/font&gt;&lt;/font&gt;&lt;br&gt;&lt;/font&gt;" style="shape=hexagon;perimeter=hexagonPerimeter2;whiteSpace=wrap;html=1;shadow=0;labelBackgroundColor=none;fontFamily=Helvetica;fontSize=23;align=center;strokeWidth=3;" parent="1" vertex="1">
          <mxGeometry x="194.5000000000001" y="2634.1995614035086" width="311.84210526315786" height="259.86842105263156" as="geometry" />
        </mxCell>
        <mxCell id="652" value="" style="triangle;whiteSpace=wrap;html=1;shadow=0;labelBackgroundColor=none;strokeColor=none;fillColor=#23445D;fontFamily=Helvetica;fontSize=17;fontColor=#23445d;align=center;rotation=31;gradientColor=none;strokeWidth=3;" parent="1" vertex="1">
          <mxGeometry x="700" y="2668.6666666666665" width="35" height="73" as="geometry" />
        </mxCell>
        <mxCell id="653" value="" style="triangle;whiteSpace=wrap;html=1;shadow=0;labelBackgroundColor=none;strokeColor=none;fillColor=#23445D;fontFamily=Helvetica;fontSize=17;fontColor=#23445d;align=center;rotation=31;gradientColor=none;flipH=1;strokeWidth=3;" parent="1" vertex="1">
          <mxGeometry x="434.5" y="3044.666666666666" width="35" height="73" as="geometry" />
        </mxCell>
        <mxCell id="654" value="" style="triangle;whiteSpace=wrap;html=1;shadow=0;labelBackgroundColor=none;strokeColor=none;fillColor=#23445D;fontFamily=Helvetica;fontSize=17;fontColor=#23445d;align=center;rotation=329;gradientColor=none;strokeWidth=3;" parent="1" vertex="1">
          <mxGeometry x="464.5" y="2653.6666666666665" width="35" height="73" as="geometry" />
        </mxCell>
        <mxCell id="655" value="" style="triangle;whiteSpace=wrap;html=1;shadow=0;labelBackgroundColor=none;strokeColor=none;fillColor=#23445D;fontFamily=Helvetica;fontSize=17;fontColor=#23445d;align=center;rotation=329;gradientColor=none;flipH=1;strokeWidth=3;" parent="1" vertex="1">
          <mxGeometry x="667.5" y="3059.666666666666" width="35" height="73" as="geometry" />
        </mxCell>
        <mxCell id="656" value="" style="triangle;whiteSpace=wrap;html=1;shadow=0;labelBackgroundColor=none;strokeColor=none;fillColor=#23445D;fontFamily=Helvetica;fontSize=17;fontColor=#23445d;align=center;rotation=90;gradientColor=none;strokeWidth=3;" parent="1" vertex="1">
          <mxGeometry x="801.078947368421" y="2874.1666666666665" width="35" height="73" as="geometry" />
        </mxCell>
        <mxCell id="SuPPVynA06f9cY6jt3N3-657" value="Model&amp;nbsp;&lt;br&gt;&lt;span style=&quot;font-size: 14px;&quot;&gt;Model for estimating Average Treatment Effect&amp;nbsp;&lt;br&gt;TMLE, AIPW, IPW&lt;br&gt;&lt;/span&gt;" style="shape=hexagon;perimeter=hexagonPerimeter2;whiteSpace=wrap;html=1;shadow=0;labelBackgroundColor=none;strokeColor=#23445D;fillColor=#FFFFFF;gradientColor=none;fontFamily=Helvetica;fontSize=23;fontColor=#23445d;align=center;strokeWidth=3;" vertex="1" parent="1">
          <mxGeometry x="428.9978947368422" y="3024.665350877193" width="311.84210526315786" height="259.86842105263156" as="geometry" />
        </mxCell>
        <mxCell id="SuPPVynA06f9cY6jt3N3-658" value="" style="triangle;whiteSpace=wrap;html=1;shadow=0;labelBackgroundColor=none;strokeColor=none;fillColor=#23445D;fontFamily=Helvetica;fontSize=17;fontColor=#23445d;align=center;rotation=-212;gradientColor=none;strokeWidth=3;" vertex="1" parent="1">
          <mxGeometry x="667.5" y="3059.6666666666665" width="35" height="73" as="geometry" />
        </mxCell>
      </root>
    </mxGraphModel>
  </diagram>
</mxfile>
